<?xml version="1.0" encoding="utf-8"?>
<!-- Generator: Adobe Illustrator 24.0.1, SVG Export Plug-In . SVG Version: 6.00 Build 0)  -->
<svg version="1.1" id="Layer_1" xmlns="http://www.w3.org/2000/svg" xmlns:xlink="http://www.w3.org/1999/xlink" x="0px" y="0px"
	 width="640px" height="170px" viewBox="0 0 640 170" style="enable-background:new 0 0 640 170;" xml:space="preserve">
<style type="text/css">
	.st0{fill-rule:evenodd;clip-rule:evenodd;fill:#483EFF;}
	.st1{fill-rule:evenodd;clip-rule:evenodd;fill:#6259FF;}
	.st2{fill-rule:evenodd;clip-rule:evenodd;fill:#FFAF7E;}
	.st3{fill-rule:evenodd;clip-rule:evenodd;fill:#F9818E;}
	.st4{fill:none;stroke:#FFFFFF;stroke-width:5;stroke-linecap:round;stroke-linejoin:bevel;}
</style>
<g>
	<g>
		<rect x="0.2" y="-0.2" class="st0" width="639.8" height="170.4"/>
	</g>
	<g>
		<g transform="translate(-151.029 -133.957)">
			<path class="st1" d="M712.5,304.2H151V133.8h84.6C374,267.6,589.7,304.2,712.5,304.2z"/>
			<path class="st2" d="M269.8,253c0,18.6-7.1,36-19.6,51.1H151V151.2C219,161.6,269.8,203.3,269.8,253z"/>
			<path class="st3" d="M791,186.1v118.1H378.9C643.6,304.2,684.7,147.3,791,186.1z"/>
			<g>
				<path class="st4" d="M562,291.3l9.1-19.4l0.8-1.7 M585.5,234.7l10.1,8.4l7.9,6.5 M555.2,226.5L539.9,242"/>
			</g>
		</g>
	</g>
</g>
</svg>
